cyclingleg_states
version=1
nRows=4
nColumns=49
inDegrees=yes

# SIMM Motion File Header:
name cyclingleg_states
datacolumns 49
datarows 4
otherdata 1
range 0.09140911 0.09242991
endheader
time	/jointset/bb/crank_angle/value	/jointset/bb/crank_angle/speed	/jointset/spindle/pedal_angle_r/value	/jointset/spindle/pedal_angle_r/speed	/jointset/ground_pelvis/pelvis_tilt/value	/jointset/ground_pelvis/pelvis_tilt/speed	/jointset/ground_pelvis/pelvis_list/value	/jointset/ground_pelvis/pelvis_list/speed	/jointset/ground_pelvis/pelvis_rotation/value	/jointset/ground_pelvis/pelvis_rotation/speed	/jointset/ground_pelvis/pelvis_tx/value	/jointset/ground_pelvis/pelvis_tx/speed	/jointset/ground_pelvis/pelvis_ty/value	/jointset/ground_pelvis/pelvis_ty/speed	/jointset/ground_pelvis/pelvis_tz/value	/jointset/ground_pelvis/pelvis_tz/speed	/jointset/hip_r/hip_angle_r/value	/jointset/hip_r/hip_angle_r/speed	/jointset/hip_r/hip_adduction_r/value	/jointset/hip_r/hip_adduction_r/speed	/jointset/hip_r/hip_rotation_r/value	/jointset/hip_r/hip_rotation_r/speed	/jointset/knee_r/knee_angle_r/value	/jointset/knee_r/knee_angle_r/speed	/jointset/knee_r/tib_tx_r/value	/jointset/knee_r/tib_tx_r/speed	/jointset/knee_r/tib_ty_r/value	/jointset/knee_r/tib_ty_r/speed	/jointset/tib_pat_r/pat_angle_r/value	/jointset/tib_pat_r/pat_angle_r/speed	/jointset/tib_pat_r/pat_tx_r/value	/jointset/tib_pat_r/pat_tx_r/speed	/jointset/tib_pat_r/pat_ty_r/value	/jointset/tib_pat_r/pat_ty_r/speed	/jointset/ankle_r/ankle_angle_r/value	/jointset/ankle_r/ankle_angle_r/speed	/jointset/subtalar_r/subtalar_angle_r/value	/jointset/subtalar_r/subtalar_angle_r/speed	/jointset/mtp_r/mtp_angle_r/value	/jointset/mtp_r/mtp_angle_r/speed	/forceset/bifemlh_r/activation	/forceset/bifemlh_r/fiber_length	/forceset/bifemsh_r/activation	/forceset/bifemsh_r/fiber_length	/forceset/glut_max2_r/activation	/forceset/glut_max2_r/fiber_length	/forceset/vas_int_r/activation	/forceset/vas_int_r/fiber_length
      0.09140911	   -884.89422602	    992.45259988	    906.48485896	   -334.49443906	     -0.00000000	     -0.00000000	      0.00000000	      0.00000000	      0.00000000	      0.00000000	     -0.12482379	     -0.62216501	     -0.05000000	      0.00000000	     -0.00000000	     -0.00000000	     34.95891823	   -108.26258835	      4.33260901	     -2.55330147	      2.80695446	     70.80866174	    -38.55281269	    584.11708723	      0.00227326	     -0.08757141	     -0.47014167	      0.13475261	     16.34646835	    -49.66765428	      0.04868401	      0.14575051	     -0.02377469	     -0.02604459	     25.59553248	    182.94103961	      0.00000000	      0.00000000	     -0.00000000	     -0.00000000	      0.02420330	      0.12249430	      0.02000000	      0.17826438	      0.02000000	      0.12670725	      0.99152872	      0.11009864
      0.09168899	   -884.61624061	    993.97591124	    906.39155912	   -332.19145817	     -0.00000000	     -0.00000000	      0.00000000	      0.00000000	      0.00000000	      0.00000000	     -0.12499816	     -0.62380168	     -0.05000000	      0.00000000	     -0.00000000	     -0.00000000	     34.92851084	   -109.03138793	      4.33189199	     -2.57036511	      2.82686018	     71.43693304	    -38.38905802	    586.05371551	      0.00224868	     -0.08804137	     -0.47010395	      0.13477702	     16.33248967	    -50.22313178	      0.04872484	      0.14598585	     -0.02378200	     -0.02617955	     25.64710887	    185.62625689	      0.00000000	      0.00000000	     -0.00000000	     -0.00000000	      0.02421696	      0.12256811	      0.02000000	      0.17840539	      0.02000000	      0.12668711	      0.99158242	      0.10996337
      0.09196888	   -884.33783238	    995.47433036	    906.29891903	   -329.77933321	     -0.00000000	     -0.00000000	      0.00000000	      0.00000000	      0.00000000	      0.00000000	     -0.12517296	     -0.62526482	     -0.05000000	      0.00000000	     -0.00000000	     -0.00000000	     34.89788103	   -109.85252797	      4.33117022	     -2.58724732	      2.84694432	     72.08379539	    -38.22475256	    588.05374764	      0.00222398	     -0.08852785	     -0.47006623	      0.13481043	     16.31835402	    -50.78954404	      0.04876573	      0.14623198	     -0.02378934	     -0.02631665	     25.69944704	    188.38530045	      0.00000000	      0.00000000	     -0.00000000	     -0.00000000	      0.02423062	      0.12264210	      0.02000000	      0.17845854	      0.02000000	      0.12666689	      0.99163516	      0.10982762
      0.09242991	   -883.87832611	    997.88228931	    906.14784060	   -325.55604073	     -0.00000000	     -0.00000000	      0.00000000	      0.00000000	      0.00000000	      0.00000000	     -0.12546171	     -0.62724569	     -0.05000000	      0.00000000	     -0.00000000	     -0.00000000	     34.84690156	   -111.32569175	      4.32997108	     -2.61460092	      2.88043077	     73.19175578	    -37.95285406	    591.49077480	      0.00218297	     -0.08936638	     -0.47000406	      0.13488545	     16.29471870	    -51.74734831	      0.04883325	      0.14666154	     -0.02380153	     -0.02654728	     25.78737754	    193.09927289	      0.00000000	      0.00000000	     -0.00000000	     -0.00000000	      0.02425313	      0.12276433	      0.02000000	      0.17866382	      0.02000000	      0.12663339	      0.99171999	      0.10960291
